<svg width="35" height="35" viewBox="0 0 35 35" fill="none" xmlns="http://www.w3.org/2000/svg">
<path fill-rule="evenodd" clip-rule="evenodd" d="M6.2781 26.9697C3.8806 24.3381 2.42227 20.8651 2.42227 17.0559C2.42227 8.84259 9.2006 2.18457 17.5627 2.18457C25.9248 2.18457 32.7031 8.84259 32.7031 17.0552C32.7031 22.863 29.3125 27.8906 24.3716 30.3392C21.2424 31.9679 17.7654 32.8153 14.2377 32.8088C9.75112 32.8088 5.5832 31.4679 2.12695 29.1725C2.12695 29.1725 4.4457 28.9195 6.27664 26.9689H6.27737L6.2781 26.9697ZM24.675 24.4161C28.5921 20.4998 28.5921 14.1495 24.675 10.2317C22.9326 8.4847 20.6054 7.44423 18.1416 7.31061V7.30988C18.0695 5.52561 19.0298 4.32103 19.0341 4.3152C16.2071 4.86009 13.6089 6.2415 11.5762 8.2804C10.0068 9.84563 8.82043 11.7524 8.10977 13.852C8.20966 13.5866 8.32122 13.3241 8.44518 13.0659C8.30202 13.4318 8.17287 13.8029 8.05799 14.1786C6.91102 17.6611 7.72039 21.6468 10.4898 24.4161C14.4068 28.3339 20.7579 28.3339 24.675 24.4161Z" fill="white"/>
<path fill-rule="evenodd" clip-rule="evenodd" d="M12.4905 16.2931V18.369C12.4905 18.7668 12.6485 19.1483 12.9298 19.4296C13.2111 19.7109 13.5926 19.8689 13.9904 19.8689C14.3882 19.8689 14.7697 19.7109 15.051 19.4296C15.3322 19.1483 15.4903 18.7668 15.4903 18.369V16.2931C15.4903 15.8953 15.3322 15.5138 15.051 15.2325C14.7697 14.9512 14.3882 14.7932 13.9904 14.7932C13.5926 14.7932 13.2111 14.9512 12.9298 15.2325C12.6485 15.5138 12.4905 15.8953 12.4905 16.2931ZM19.9156 16.2931V18.369C19.9156 18.7668 20.0736 19.1483 20.3549 19.4296C20.6362 19.7109 21.0177 19.8689 21.4155 19.8689C21.8133 19.8689 22.1948 19.7109 22.4761 19.4296C22.7573 19.1483 22.9154 18.7668 22.9154 18.369V16.2931C22.9154 15.8953 22.7573 15.5138 22.4761 15.2325C22.1948 14.9512 21.8133 14.7932 21.4155 14.7932C21.0177 14.7932 20.6362 14.9512 20.3549 15.2325C20.0736 15.5138 19.9156 15.8953 19.9156 16.2931Z" fill="white"/>
</svg>
