<svg width="35" height="35" viewBox="0 0 35 35" fill="none" xmlns="http://www.w3.org/2000/svg">
<path d="M5.83333 18.9583H14.5833C14.9701 18.9583 15.341 18.8047 15.6145 18.5312C15.888 18.2577 16.0417 17.8868 16.0417 17.5V5.83333C16.0417 5.44656 15.888 5.07563 15.6145 4.80214C15.341 4.52865 14.9701 4.375 14.5833 4.375H5.83333C5.44656 4.375 5.07563 4.52865 4.80214 4.80214C4.52865 5.07563 4.375 5.44656 4.375 5.83333V17.5C4.375 17.8868 4.52865 18.2577 4.80214 18.5312C5.07563 18.8047 5.44656 18.9583 5.83333 18.9583ZM4.375 29.1667C4.375 29.5534 4.52865 29.9244 4.80214 30.1979C5.07563 30.4714 5.44656 30.625 5.83333 30.625H14.5833C14.9701 30.625 15.341 30.4714 15.6145 30.1979C15.888 29.9244 16.0417 29.5534 16.0417 29.1667V23.3333C16.0417 22.9466 15.888 22.5756 15.6145 22.3021C15.341 22.0286 14.9701 21.875 14.5833 21.875H5.83333C5.44656 21.875 5.07563 22.0286 4.80214 22.3021C4.52865 22.5756 4.375 22.9466 4.375 23.3333V29.1667ZM18.9583 29.1667C18.9583 29.5534 19.112 29.9244 19.3855 30.1979C19.659 30.4714 20.0299 30.625 20.4167 30.625H29.1667C29.5534 30.625 29.9244 30.4714 30.1979 30.1979C30.4714 29.9244 30.625 29.5534 30.625 29.1667V18.9583C30.625 18.5716 30.4714 18.2006 30.1979 17.9271C29.9244 17.6536 29.5534 17.5 29.1667 17.5H20.4167C20.0299 17.5 19.659 17.6536 19.3855 17.9271C19.112 18.2006 18.9583 18.5716 18.9583 18.9583V29.1667ZM20.4167 14.5833H29.1667C29.5534 14.5833 29.9244 14.4297 30.1979 14.1562C30.4714 13.8827 30.625 13.5118 30.625 13.125V5.83333C30.625 5.44656 30.4714 5.07563 30.1979 4.80214C29.9244 4.52865 29.5534 4.375 29.1667 4.375H20.4167C20.0299 4.375 19.659 4.52865 19.3855 4.80214C19.112 5.07563 18.9583 5.44656 18.9583 5.83333V13.125C18.9583 13.5118 19.112 13.8827 19.3855 14.1562C19.659 14.4297 20.0299 14.5833 20.4167 14.5833Z" fill="#2F3478"/>
</svg>
