<svg width="35" height="35" viewBox="0 0 35 35" fill="none" xmlns="http://www.w3.org/2000/svg">
<path d="M10.2084 2.91675H4.37508C3.98831 2.91675 3.61737 3.07039 3.34388 3.34388C3.07039 3.61737 2.91675 3.98831 2.91675 4.37508V30.6251C2.91675 31.0119 3.07039 31.3828 3.34388 31.6563C3.61737 31.9298 3.98831 32.0834 4.37508 32.0834H10.2084C10.5952 32.0834 10.9661 31.9298 11.2396 31.6563C11.5131 31.3828 11.6667 31.0119 11.6667 30.6251V4.37508C11.6667 3.98831 11.5131 3.61737 11.2396 3.34388C10.9661 3.07039 10.5952 2.91675 10.2084 2.91675ZM7.29175 30.6251C6.71489 30.6251 6.15098 30.454 5.67133 30.1335C5.19169 29.813 4.81786 29.3575 4.5971 28.8246C4.37634 28.2916 4.31858 27.7052 4.43112 27.1394C4.54366 26.5736 4.82145 26.0539 5.22935 25.646C5.63726 25.2381 6.15696 24.9603 6.72273 24.8478C7.28851 24.7353 7.87496 24.793 8.40791 25.0138C8.94086 25.2345 9.39638 25.6084 9.71687 26.088C10.0374 26.5676 10.2084 27.1316 10.2084 27.7084C10.2084 28.482 9.90112 29.2238 9.35414 29.7708C8.80716 30.3178 8.0653 30.6251 7.29175 30.6251ZM10.2084 17.5001H4.37508V4.37508H10.2084V17.5001Z" fill="white"/>
<path d="M7.30623 29.1813C8.11165 29.1813 8.76457 28.5284 8.76457 27.723C8.76457 26.9176 8.11165 26.2646 7.30623 26.2646C6.50082 26.2646 5.8479 26.9176 5.8479 27.723C5.8479 28.5284 6.50082 29.1813 7.30623 29.1813Z" fill="white"/>
<path d="M14.5979 2.91675V16.0563H21.8896V2.91675H14.5979Z" fill="white"/>
<path d="M24.7917 2.91675V16.0563H32.0834V2.91675H24.7917Z" fill="white"/>
<path d="M14.5979 18.9583V32.0833H21.8896V18.9583H14.5979Z" fill="white"/>
<path d="M24.7917 18.9583V32.0833H32.0834V18.9583H24.7917Z" fill="white"/>
</svg>
