<svg width="35" height="31" viewBox="0 0 35 31" fill="none" xmlns="http://www.w3.org/2000/svg">
<path d="M34.125 21.3125H33.25V14.7674C33.25 13.9984 32.9711 13.2598 32.4789 12.7148L27.0156 6.66621C26.5234 6.12129 25.8563 5.8125 25.1617 5.8125H22.75V2.90625C22.75 1.30176 21.5742 0 20.125 0H6.125C4.67578 0 3.5 1.30176 3.5 2.90625V5.8125H0.4375C0.196875 5.8125 0 6.03047 0 6.29688V7.26562C0 7.53203 0.196875 7.75 0.4375 7.75H15.3125C15.5531 7.75 15.75 7.96797 15.75 8.23438V9.20312C15.75 9.46953 15.5531 9.6875 15.3125 9.6875H2.1875C1.94687 9.6875 1.75 9.90547 1.75 10.1719V11.1406C1.75 11.407 1.94687 11.625 2.1875 11.625H13.5625C13.8031 11.625 14 11.843 14 12.1094V13.0781C14 13.3445 13.8031 13.5625 13.5625 13.5625H0.4375C0.196875 13.5625 0 13.7805 0 14.0469V15.0156C0 15.282 0.196875 15.5 0.4375 15.5H11.8125C12.0531 15.5 12.25 15.718 12.25 15.9844V16.9531C12.25 17.2195 12.0531 17.4375 11.8125 17.4375H3.5V25.1875C3.5 28.3965 5.85156 31 8.75 31C11.6484 31 14 28.3965 14 25.1875H21C21 28.3965 23.3516 31 26.25 31C29.1484 31 31.5 28.3965 31.5 25.1875H34.125C34.6063 25.1875 35 24.7516 35 24.2188V22.2812C35 21.7484 34.6063 21.3125 34.125 21.3125ZM8.75 28.0938C7.30078 28.0938 6.125 26.792 6.125 25.1875C6.125 23.583 7.30078 22.2812 8.75 22.2812C10.1992 22.2812 11.375 23.583 11.375 25.1875C11.375 26.792 10.1992 28.0938 8.75 28.0938ZM26.25 28.0938C24.8008 28.0938 23.625 26.792 23.625 25.1875C23.625 23.583 24.8008 22.2812 26.25 22.2812C27.6992 22.2812 28.875 23.583 28.875 25.1875C28.875 26.792 27.6992 28.0938 26.25 28.0938ZM30.625 15.5H22.75V8.71875H25.1617L30.625 14.7674V15.5Z" fill="white"/>
</svg>
