<svg width="35" height="35" viewBox="0 0 35 35" fill="none" xmlns="http://www.w3.org/2000/svg">
<path d="M24.7917 2.91699H10.2083C8.60416 2.91699 7.29166 4.22949 7.29166 5.83366V8.75033C7.29166 10.3545 8.60416 11.667 10.2083 11.667H24.7917C26.3958 11.667 27.7083 10.3545 27.7083 8.75033V5.83366C27.7083 4.22949 26.3958 2.91699 24.7917 2.91699ZM24.7917 8.75033H10.2083V5.83366H24.7917V8.75033ZM29.1667 32.0837H5.83332C4.22916 32.0837 2.91666 30.7712 2.91666 29.167V27.7087H32.0833V29.167C32.0833 30.7712 30.7708 32.0837 29.1667 32.0837ZM27.0229 14.8607C26.7928 14.3449 26.4185 13.9066 25.9449 13.5987C25.4714 13.2908 24.919 13.1264 24.3542 13.1253H10.6458C9.49374 13.1253 8.44374 13.8107 7.97707 14.8607L2.91666 26.2503H32.0833L27.0229 14.8607ZM13.8542 23.3337H12.3958C11.9875 23.3337 11.6667 23.0128 11.6667 22.6045C11.6667 22.1962 11.9875 21.8753 12.3958 21.8753H13.8542C14.2625 21.8753 14.5833 22.1962 14.5833 22.6045C14.5833 23.0128 14.2625 23.3337 13.8542 23.3337ZM13.8542 20.417H12.3958C11.9875 20.417 11.6667 20.0962 11.6667 19.6878C11.6667 19.2795 11.9875 18.9587 12.3958 18.9587H13.8542C14.2625 18.9587 14.5833 19.2795 14.5833 19.6878C14.5833 20.0962 14.2625 20.417 13.8542 20.417ZM13.8542 17.5003H12.3958C11.9875 17.5003 11.6667 17.1795 11.6667 16.7712C11.6667 16.3628 11.9875 16.042 12.3958 16.042H13.8542C14.2625 16.042 14.5833 16.3628 14.5833 16.7712C14.5833 17.1795 14.2625 17.5003 13.8542 17.5003ZM18.2292 23.3337H16.7708C16.3625 23.3337 16.0417 23.0128 16.0417 22.6045C16.0417 22.1962 16.3625 21.8753 16.7708 21.8753H18.2292C18.6375 21.8753 18.9583 22.1962 18.9583 22.6045C18.9583 23.0128 18.6375 23.3337 18.2292 23.3337ZM18.2292 20.417H16.7708C16.3625 20.417 16.0417 20.0962 16.0417 19.6878C16.0417 19.2795 16.3625 18.9587 16.7708 18.9587H18.2292C18.6375 18.9587 18.9583 19.2795 18.9583 19.6878C18.9583 20.0962 18.6375 20.417 18.2292 20.417ZM18.2292 17.5003H16.7708C16.3625 17.5003 16.0417 17.1795 16.0417 16.7712C16.0417 16.3628 16.3625 16.042 16.7708 16.042H18.2292C18.6375 16.042 18.9583 16.3628 18.9583 16.7712C18.9583 17.1795 18.6375 17.5003 18.2292 17.5003ZM22.6042 23.3337H21.1458C20.7375 23.3337 20.4167 23.0128 20.4167 22.6045C20.4167 22.1962 20.7375 21.8753 21.1458 21.8753H22.6042C23.0125 21.8753 23.3333 22.1962 23.3333 22.6045C23.3333 23.0128 23.0125 23.3337 22.6042 23.3337ZM22.6042 20.417H21.1458C20.7375 20.417 20.4167 20.0962 20.4167 19.6878C20.4167 19.2795 20.7375 18.9587 21.1458 18.9587H22.6042C23.0125 18.9587 23.3333 19.2795 23.3333 19.6878C23.3333 20.0962 23.0125 20.417 22.6042 20.417ZM22.6042 17.5003H21.1458C20.7375 17.5003 20.4167 17.1795 20.4167 16.7712C20.4167 16.3628 20.7375 16.042 21.1458 16.042H22.6042C23.0125 16.042 23.3333 16.3628 23.3333 16.7712C23.3333 17.1795 23.0125 17.5003 22.6042 17.5003Z" fill="#2F3478"/>
</svg>
