<svg width="22" height="22" viewBox="0 0 22 22" fill="none" xmlns="http://www.w3.org/2000/svg">
<path fill-rule="evenodd" clip-rule="evenodd" d="M11 0C4.925 0 0 4.925 0 11C0 17.075 4.925 22 11 22C17.075 22 22 17.075 22 11C22 4.925 17.075 0 11 0ZM8.793 7.707C8.61084 7.5184 8.51005 7.2658 8.51233 7.0036C8.5146 6.7414 8.61977 6.49059 8.80518 6.30518C8.99059 6.11977 9.2414 6.0146 9.5036 6.01233C9.7658 6.01005 10.0184 6.11084 10.207 6.293L14.207 10.293C14.3945 10.4805 14.4998 10.7348 14.4998 11C14.4998 11.2652 14.3945 11.5195 14.207 11.707L10.207 15.707C10.0184 15.8892 9.7658 15.99 9.5036 15.9877C9.2414 15.9854 8.99059 15.8802 8.80518 15.6948C8.61977 15.5094 8.5146 15.2586 8.51233 14.9964C8.51005 14.7342 8.61084 14.4816 8.793 14.293L12.086 11L8.793 7.707Z" fill="#2F3478"/>
</svg>
