<svg width="35" height="35" viewBox="0 0 35 35" fill="none" xmlns="http://www.w3.org/2000/svg">
<path d="M24.7917 2.91675H10.2084C8.60419 2.91675 7.29169 4.22925 7.29169 5.83342V8.75008C7.29169 10.3542 8.60419 11.6667 10.2084 11.6667H24.7917C26.3959 11.6667 27.7084 10.3542 27.7084 8.75008V5.83342C27.7084 4.22925 26.3959 2.91675 24.7917 2.91675ZM24.0625 8.75008H10.9375C10.5292 8.75008 10.2084 8.42925 10.2084 8.02092V6.56258C10.2084 6.15425 10.5292 5.83342 10.9375 5.83342H24.0625C24.4709 5.83342 24.7917 6.15425 24.7917 6.56258V8.02092C24.7917 8.42925 24.4709 8.75008 24.0625 8.75008ZM29.1667 32.0834H5.83335C4.22919 32.0834 2.91669 30.7709 2.91669 29.1668V27.7084H32.0834V29.1668C32.0834 30.7709 30.7709 32.0834 29.1667 32.0834ZM27.0229 14.8605C26.7929 14.3447 26.4185 13.9064 25.945 13.5985C25.4715 13.2906 24.919 13.1262 24.3542 13.1251H10.6459C9.49377 13.1251 8.44377 13.8105 7.9771 14.8605L2.91669 26.2501H32.0834L27.0229 14.8605ZM13.8542 23.3334H12.3959C11.9875 23.3334 11.6667 23.0126 11.6667 22.6042C11.6667 22.1959 11.9875 21.8751 12.3959 21.8751H13.8542C14.2625 21.8751 14.5834 22.1959 14.5834 22.6042C14.5834 23.0126 14.2625 23.3334 13.8542 23.3334ZM13.8542 20.4167H12.3959C11.9875 20.4167 11.6667 20.0959 11.6667 19.6876C11.6667 19.2792 11.9875 18.9584 12.3959 18.9584H13.8542C14.2625 18.9584 14.5834 19.2792 14.5834 19.6876C14.5834 20.0959 14.2625 20.4167 13.8542 20.4167ZM13.8542 17.5001H12.3959C11.9875 17.5001 11.6667 17.1792 11.6667 16.7709C11.6667 16.3626 11.9875 16.0417 12.3959 16.0417H13.8542C14.2625 16.0417 14.5834 16.3626 14.5834 16.7709C14.5834 17.1792 14.2625 17.5001 13.8542 17.5001ZM18.2292 23.3334H16.7709C16.3625 23.3334 16.0417 23.0126 16.0417 22.6042C16.0417 22.1959 16.3625 21.8751 16.7709 21.8751H18.2292C18.6375 21.8751 18.9584 22.1959 18.9584 22.6042C18.9584 23.0126 18.6375 23.3334 18.2292 23.3334ZM18.2292 20.4167H16.7709C16.3625 20.4167 16.0417 20.0959 16.0417 19.6876C16.0417 19.2792 16.3625 18.9584 16.7709 18.9584H18.2292C18.6375 18.9584 18.9584 19.2792 18.9584 19.6876C18.9584 20.0959 18.6375 20.4167 18.2292 20.4167ZM18.2292 17.5001H16.7709C16.3625 17.5001 16.0417 17.1792 16.0417 16.7709C16.0417 16.3626 16.3625 16.0417 16.7709 16.0417H18.2292C18.6375 16.0417 18.9584 16.3626 18.9584 16.7709C18.9584 17.1792 18.6375 17.5001 18.2292 17.5001ZM22.6042 23.3334H21.1459C20.7375 23.3334 20.4167 23.0126 20.4167 22.6042C20.4167 22.1959 20.7375 21.8751 21.1459 21.8751H22.6042C23.0125 21.8751 23.3334 22.1959 23.3334 22.6042C23.3334 23.0126 23.0125 23.3334 22.6042 23.3334ZM22.6042 20.4167H21.1459C20.7375 20.4167 20.4167 20.0959 20.4167 19.6876C20.4167 19.2792 20.7375 18.9584 21.1459 18.9584H22.6042C23.0125 18.9584 23.3334 19.2792 23.3334 19.6876C23.3334 20.0959 23.0125 20.4167 22.6042 20.4167ZM22.6042 17.5001H21.1459C20.7375 17.5001 20.4167 17.1792 20.4167 16.7709C20.4167 16.3626 20.7375 16.0417 21.1459 16.0417H22.6042C23.0125 16.0417 23.3334 16.3626 23.3334 16.7709C23.3334 17.1792 23.0125 17.5001 22.6042 17.5001Z" fill="#2F3478"/>
</svg>
