<svg width="24" height="24" viewBox="0 0 24 24" fill="none" xmlns="http://www.w3.org/2000/svg">
<path d="M16 21H17.75C18.612 21 19.4386 20.6576 20.0481 20.0481C20.6576 19.4386 21 18.612 21 17.75V16H16V21Z" fill="#2F3478"/>
<path d="M16 14.5H21V9.5H16V14.5Z" fill="#2F3478"/>
<path d="M10.482 9.5H14.5V14.5H10.482C10.518 14.25 10.5 13.994 10.428 13.75H11.25C11.7141 13.75 12.1592 13.5656 12.4874 13.2374C12.8156 12.9092 13 12.4641 13 12C13 11.5359 12.8156 11.0908 12.4874 10.7626C12.1592 10.4344 11.7141 10.25 11.25 10.25H10.428C10.5 10.006 10.518 9.75 10.482 9.5Z" fill="#2F3478"/>
<path d="M16 8H21V6.25C21 5.38805 20.6576 4.5614 20.0481 3.9519C19.4386 3.34241 18.612 3 17.75 3H16V8Z" fill="#2F3478"/>
<path d="M14.5 3V8H9.5V3.75C9.5 3.55109 9.57902 3.36032 9.71967 3.21967C9.86032 3.07902 10.0511 3 10.25 3H14.5Z" fill="#2F3478"/>
<path d="M14.5 16V21H10.25C10.0511 21 9.86032 20.921 9.71967 20.7803C9.57902 20.6397 9.5 20.4489 9.5 20.25V16H14.5Z" fill="#2F3478"/>
<path d="M4.5 3.75C4.5 3.55109 4.42098 3.36032 4.28033 3.21967C4.13968 3.07902 3.94891 3 3.75 3C3.55109 3 3.36032 3.07902 3.21967 3.21967C3.07902 3.36032 3 3.55109 3 3.75V20.25C3 20.4489 3.07902 20.6397 3.21967 20.7803C3.36032 20.921 3.55109 21 3.75 21C3.94891 21 4.13968 20.921 4.28033 20.7803C4.42098 20.6397 4.5 20.4489 4.5 20.25V3.75Z" fill="#2F3478"/>
<path d="M9.24805 9.1902C9.39658 9.32223 9.48663 9.5078 9.49844 9.70617C9.51026 9.90454 9.44286 10.0995 9.31105 10.2482L8.42105 11.2502H11.2501C11.449 11.2502 11.6397 11.3292 11.7804 11.4699C11.921 11.6105 12.0001 11.8013 12.0001 12.0002C12.0001 12.1991 11.921 12.3899 11.7804 12.5305C11.6397 12.6712 11.449 12.7502 11.2501 12.7502H8.42005L9.31006 13.7522C9.43291 13.902 9.49305 14.0935 9.47785 14.2866C9.46266 14.4798 9.37333 14.6595 9.22856 14.7883C9.08379 14.917 8.89483 14.9847 8.70124 14.9773C8.50765 14.9698 8.32447 14.8877 8.19005 14.7482L6.19005 12.4982C6.06817 12.361 6.00085 12.1838 6.00085 12.0002C6.00085 11.8166 6.06817 11.6395 6.19005 11.5022L8.19005 9.2522C8.32208 9.10368 8.50765 9.01363 8.70602 9.00182C8.90439 8.99 9.09934 9.0574 9.24805 9.1892V9.1902Z" fill="#2F3478"/>
</svg>
