<svg width="29" height="29" viewBox="0 0 29 29" fill="none" xmlns="http://www.w3.org/2000/svg">
<path d="M14.5 0.5C19.4298 0.5 22.2262 3.86525 22.6322 7.9305H22.7547C25.931 7.9305 28.5 10.5765 28.5 13.8403C28.5 14.0065 28.493 14.1728 28.4808 14.3355C27.2245 12.7663 25.527 11.6093 23.6071 11.0136C21.6872 10.418 19.6329 10.411 17.709 10.9936C15.7851 11.5762 14.0799 12.7217 12.813 14.2824C11.5461 15.8431 10.7756 17.7474 10.601 19.75H6.2435C3.07075 19.75 0.5 17.104 0.5 13.8403C0.5 10.5765 3.0725 7.9305 6.2435 7.9305H6.36775C6.77725 3.839 9.57025 0.5 14.5 0.5ZM12.75 20.625C12.75 22.7136 13.5797 24.7166 15.0565 26.1935C16.5334 27.6703 18.5364 28.5 20.625 28.5C22.7136 28.5 24.7166 27.6703 26.1935 26.1935C27.6703 24.7166 28.5 22.7136 28.5 20.625C28.5 18.5364 27.6703 16.5334 26.1935 15.0565C24.7166 13.5797 22.7136 12.75 20.625 12.75C18.5364 12.75 16.5334 13.5797 15.0565 15.0565C13.5797 16.5334 12.75 18.5364 12.75 20.625ZM24.125 15.375C24.3571 15.375 24.5796 15.4672 24.7437 15.6313C24.9078 15.7954 25 16.0179 25 16.25V18.875C25 19.1071 24.9078 19.3296 24.7437 19.4937C24.5796 19.6578 24.3571 19.75 24.125 19.75H21.5C21.2679 19.75 21.0454 19.6578 20.8813 19.4937C20.7172 19.3296 20.625 19.1071 20.625 18.875C20.625 18.6429 20.7172 18.4204 20.8813 18.2563C21.0454 18.0922 21.2679 18 21.5 18H22.319C21.6543 17.6318 20.8879 17.4901 20.1355 17.5961C19.3831 17.7022 18.6857 18.0504 18.1488 18.588C17.9825 18.7408 17.7636 18.8234 17.5379 18.8186C17.3122 18.8137 17.097 18.7218 16.9375 18.562C16.7779 18.4023 16.6863 18.187 16.6818 17.9613C16.6773 17.7355 16.7602 17.5168 16.9132 17.3507C17.7305 16.5339 18.7944 16.0093 19.94 15.8584C21.0856 15.7075 22.2491 15.9386 23.25 16.516V16.25C23.25 16.0179 23.3422 15.7954 23.5063 15.6313C23.6704 15.4672 23.8929 15.375 24.125 15.375ZM22.592 25.056C21.8524 25.3548 21.0545 25.4811 20.2588 25.4253C19.4631 25.3695 18.6906 25.1331 18 24.734V25C18 25.2321 17.9078 25.4546 17.7437 25.6187C17.5796 25.7828 17.3571 25.875 17.125 25.875C16.8929 25.875 16.6704 25.7828 16.5063 25.6187C16.3422 25.4546 16.25 25.2321 16.25 25V22.375C16.25 22.1429 16.3422 21.9204 16.5063 21.7563C16.6704 21.5922 16.8929 21.5 17.125 21.5H19.75C19.9821 21.5 20.2046 21.5922 20.3687 21.7563C20.5328 21.9204 20.625 22.1429 20.625 22.375C20.625 22.6071 20.5328 22.8296 20.3687 22.9937C20.2046 23.1578 19.9821 23.25 19.75 23.25H18.931C19.5957 23.6182 20.3621 23.7599 21.1145 23.6539C21.8669 23.5478 22.5643 23.1996 23.1012 22.662C23.2675 22.5092 23.4864 22.4266 23.7121 22.4314C23.9378 22.4363 24.153 22.5282 24.3125 22.688C24.4721 22.8477 24.5637 23.063 24.5682 23.2887C24.5727 23.5145 24.4898 23.7332 24.3368 23.8993C23.838 24.398 23.2447 24.7917 22.592 25.0543V25.056Z" fill="#2F3478"/>
</svg>
