<svg width="24" height="24" viewBox="0 0 24 24" fill="none" xmlns="http://www.w3.org/2000/svg">
<path fill-rule="evenodd" clip-rule="evenodd" d="M4.305 18.4935C2.661 16.689 1.661 14.3075 1.661 11.6955C1.661 6.06355 6.309 1.49805 12.043 1.49805C17.777 1.49805 22.425 6.06355 22.425 11.695C22.425 15.6775 20.1 19.125 16.712 20.804C14.5662 21.9209 12.182 22.502 9.763 22.4975C6.6865 22.4975 3.8285 21.578 1.4585 20.004C1.4585 20.004 3.0485 19.8305 4.304 18.493H4.3045L4.305 18.4935ZM16.92 16.7425C19.606 14.057 19.606 9.70255 16.92 7.01605C15.7252 5.81814 14.1294 5.10467 12.44 5.01305V5.01255C12.3905 3.78905 13.049 2.96305 13.052 2.95905C11.1135 3.33269 9.33184 4.27994 7.938 5.67805C6.86182 6.75134 6.04831 8.05888 5.561 9.49855C5.6295 9.31655 5.706 9.13655 5.791 8.95955C5.69283 9.21041 5.60427 9.46493 5.5255 9.72255C4.739 12.1105 5.294 14.8435 7.193 16.7425C9.879 19.429 14.234 19.429 16.92 16.7425Z" fill="#2F3478"/>
<path fill-rule="evenodd" clip-rule="evenodd" d="M8.565 11.1725V12.596C8.565 12.8688 8.67336 13.1304 8.86624 13.3233C9.05912 13.5162 9.32073 13.6245 9.5935 13.6245C9.86628 13.6245 10.1279 13.5162 10.3208 13.3233C10.5136 13.1304 10.622 12.8688 10.622 12.596V11.1725C10.622 10.8998 10.5136 10.6382 10.3208 10.4453C10.1279 10.2524 9.86628 10.144 9.5935 10.144C9.32073 10.144 9.05912 10.2524 8.86624 10.4453C8.67336 10.6382 8.565 10.8998 8.565 11.1725ZM13.6565 11.1725V12.596C13.6565 12.8688 13.7649 13.1304 13.9577 13.3233C14.1506 13.5162 14.4122 13.6245 14.685 13.6245C14.9578 13.6245 15.2194 13.5162 15.4123 13.3233C15.6051 13.1304 15.7135 12.8688 15.7135 12.596V11.1725C15.7135 10.8998 15.6051 10.6382 15.4123 10.4453C15.2194 10.2524 14.9578 10.144 14.685 10.144C14.4122 10.144 14.1506 10.2524 13.9577 10.4453C13.7649 10.6382 13.6565 10.8998 13.6565 11.1725Z" fill="#2F3478"/>
</svg>
