<svg width="131" height="28" viewBox="0 0 131 28" fill="none" xmlns="http://www.w3.org/2000/svg">
<path d="M17.4707 22.2188H9.01562L7.53906 27H0.947266L10.334 1.40625H16.1348L25.5918 27H18.9648L17.4707 22.2188ZM10.4922 17.4551H15.9941L13.2344 8.57812L10.4922 17.4551ZM50.9746 22.2188H42.5195L41.043 27H34.4512L43.8379 1.40625H49.6387L59.0957 27H52.4688L50.9746 22.2188ZM43.9961 17.4551H49.498L46.7383 8.57812L43.9961 17.4551ZM90.0156 1.40625V18.1582C90.0156 20.0566 89.6113 21.7031 88.8027 23.0977C87.9941 24.4805 86.834 25.5352 85.3223 26.2617C83.8105 26.9883 82.0234 27.3516 79.9609 27.3516C76.8438 27.3516 74.3887 26.543 72.5957 24.9258C70.8027 23.3086 69.8887 21.0938 69.8535 18.2812V1.40625H76.0586V18.4043C76.1289 21.2051 77.4297 22.6055 79.9609 22.6055C81.2383 22.6055 82.2051 22.2539 82.8613 21.5508C83.5176 20.8477 83.8457 19.7051 83.8457 18.123V1.40625H90.0156ZM111.268 17.6484C111.268 20.7656 110.623 23.1621 109.334 24.8379C108.045 26.5137 106.229 27.3516 103.885 27.3516C101.951 27.3516 100.393 26.584 99.209 25.0488L98.9629 27H93.6543V0H99.5781V9.50977C100.68 8.25586 102.104 7.62891 103.85 7.62891C106.217 7.62891 108.045 8.47852 109.334 10.1777C110.623 11.877 111.268 14.2676 111.268 17.3496V17.6484ZM105.326 17.2793C105.326 15.4512 105.08 14.1504 104.588 13.377C104.107 12.5918 103.363 12.1992 102.355 12.1992C101.02 12.1992 100.094 12.709 99.5781 13.7285V21.2871C100.082 22.2949 101.02 22.7988 102.391 22.7988C103.785 22.7988 104.67 22.1191 105.045 20.7598C105.232 20.0918 105.326 18.9316 105.326 17.2793ZM124.609 27C124.398 26.6133 124.211 26.0449 124.047 25.2949C122.957 26.666 121.434 27.3516 119.477 27.3516C117.684 27.3516 116.16 26.8125 114.906 25.7344C113.652 24.6445 113.025 23.2793 113.025 21.6387C113.025 19.5762 113.787 18.0176 115.311 16.9629C116.834 15.9082 119.049 15.3809 121.955 15.3809H123.783V14.3789C123.783 12.6328 123.027 11.7598 121.516 11.7598C120.109 11.7598 119.406 12.4512 119.406 13.834H113.482C113.482 11.9941 114.262 10.5 115.82 9.35156C117.391 8.20313 119.389 7.62891 121.814 7.62891C124.24 7.62891 126.156 8.2207 127.562 9.4043C128.969 10.5879 129.689 12.2109 129.725 14.2734V22.6934C129.748 24.4395 130.018 25.7754 130.533 26.7012V27H124.609ZM120.9 23.1328C121.639 23.1328 122.248 22.9746 122.729 22.6582C123.221 22.3418 123.572 21.9844 123.783 21.5859V18.5449H122.061C119.998 18.5449 118.967 19.4707 118.967 21.3223C118.967 21.8613 119.148 22.3008 119.512 22.6406C119.875 22.9688 120.338 23.1328 120.9 23.1328Z" fill="#2F3478"/>
</svg>
