<svg width="34" height="34" viewBox="0 0 34 34" fill="none" xmlns="http://www.w3.org/2000/svg">
<path d="M25.3333 0.333252H8.66665C6.83331 0.333252 5.33331 1.83325 5.33331 3.66659V6.99992C5.33331 8.83325 6.83331 10.3333 8.66665 10.3333H25.3333C27.1666 10.3333 28.6666 8.83325 28.6666 6.99992V3.66659C28.6666 1.83325 27.1666 0.333252 25.3333 0.333252ZM25.3333 6.99992H8.66665V3.66659H25.3333V6.99992ZM30.3333 33.6666H3.66665C1.83331 33.6666 0.333313 32.1666 0.333313 30.3333V28.6666H33.6666V30.3333C33.6666 32.1666 32.1666 33.6666 30.3333 33.6666ZM27.8833 13.9833C27.6204 13.3937 27.1925 12.8928 26.6514 12.5409C26.1102 12.189 25.4788 12.0012 24.8333 11.9999H9.16665C7.84998 11.9999 6.64998 12.7833 6.11665 13.9833L0.333313 26.9999H33.6666L27.8833 13.9833ZM12.8333 23.6666H11.1666C10.7 23.6666 10.3333 23.2999 10.3333 22.8333C10.3333 22.3666 10.7 21.9999 11.1666 21.9999H12.8333C13.3 21.9999 13.6666 22.3666 13.6666 22.8333C13.6666 23.2999 13.3 23.6666 12.8333 23.6666ZM12.8333 20.3333H11.1666C10.7 20.3333 10.3333 19.9666 10.3333 19.4999C10.3333 19.0333 10.7 18.6666 11.1666 18.6666H12.8333C13.3 18.6666 13.6666 19.0333 13.6666 19.4999C13.6666 19.9666 13.3 20.3333 12.8333 20.3333ZM12.8333 16.9999H11.1666C10.7 16.9999 10.3333 16.6333 10.3333 16.1666C10.3333 15.6999 10.7 15.3333 11.1666 15.3333H12.8333C13.3 15.3333 13.6666 15.6999 13.6666 16.1666C13.6666 16.6333 13.3 16.9999 12.8333 16.9999ZM17.8333 23.6666H16.1666C15.7 23.6666 15.3333 23.2999 15.3333 22.8333C15.3333 22.3666 15.7 21.9999 16.1666 21.9999H17.8333C18.3 21.9999 18.6666 22.3666 18.6666 22.8333C18.6666 23.2999 18.3 23.6666 17.8333 23.6666ZM17.8333 20.3333H16.1666C15.7 20.3333 15.3333 19.9666 15.3333 19.4999C15.3333 19.0333 15.7 18.6666 16.1666 18.6666H17.8333C18.3 18.6666 18.6666 19.0333 18.6666 19.4999C18.6666 19.9666 18.3 20.3333 17.8333 20.3333ZM17.8333 16.9999H16.1666C15.7 16.9999 15.3333 16.6333 15.3333 16.1666C15.3333 15.6999 15.7 15.3333 16.1666 15.3333H17.8333C18.3 15.3333 18.6666 15.6999 18.6666 16.1666C18.6666 16.6333 18.3 16.9999 17.8333 16.9999ZM22.8333 23.6666H21.1666C20.7 23.6666 20.3333 23.2999 20.3333 22.8333C20.3333 22.3666 20.7 21.9999 21.1666 21.9999H22.8333C23.3 21.9999 23.6666 22.3666 23.6666 22.8333C23.6666 23.2999 23.3 23.6666 22.8333 23.6666ZM22.8333 20.3333H21.1666C20.7 20.3333 20.3333 19.9666 20.3333 19.4999C20.3333 19.0333 20.7 18.6666 21.1666 18.6666H22.8333C23.3 18.6666 23.6666 19.0333 23.6666 19.4999C23.6666 19.9666 23.3 20.3333 22.8333 20.3333ZM22.8333 16.9999H21.1666C20.7 16.9999 20.3333 16.6333 20.3333 16.1666C20.3333 15.6999 20.7 15.3333 21.1666 15.3333H22.8333C23.3 15.3333 23.6666 15.6999 23.6666 16.1666C23.6666 16.6333 23.3 16.9999 22.8333 16.9999Z" fill="white"/>
</svg>
