<svg width="35" height="35" viewBox="0 0 35 35" fill="none" xmlns="http://www.w3.org/2000/svg">
<path d="M18.3546 3.77133C17.8077 3.22431 17.066 2.91691 16.2925 2.91675H5.83332C5.05978 2.91675 4.31791 3.22404 3.77093 3.77102C3.22395 4.318 2.91666 5.05987 2.91666 5.83341V16.2926C2.91682 17.0661 3.22422 17.8078 3.77124 18.3547L15.4379 30.0213C15.9849 30.5681 16.7266 30.8753 17.5 30.8753C18.2734 30.8753 19.0151 30.5681 19.5621 30.0213L30.0212 19.5622C30.568 19.0152 30.8752 18.2735 30.8752 17.5001C30.8752 16.7267 30.568 15.985 30.0212 15.438L18.3546 3.77133ZM10.2083 13.1251C9.43458 13.1249 8.69261 12.8173 8.14563 12.2701C7.59865 11.7228 7.29146 10.9807 7.29166 10.207C7.29185 9.43322 7.5994 8.69124 8.14666 8.14426C8.69391 7.59728 9.43604 7.2901 10.2098 7.29029C10.9835 7.29048 11.7255 7.59804 12.2725 8.14529C12.8195 8.69255 13.1266 9.43467 13.1264 10.2084C13.1263 10.9822 12.8187 11.7241 12.2714 12.2711C11.7242 12.8181 10.9821 13.1253 10.2083 13.1251Z" fill="#2F3478"/>
</svg>
