<svg width="24" height="20" viewBox="0 0 24 20" fill="none" xmlns="http://www.w3.org/2000/svg">
<path d="M23.4 13.75H22.8V9.52734C22.8 9.03125 22.6088 8.55469 22.2713 8.20312L18.525 4.30078C18.1875 3.94922 17.73 3.75 17.2538 3.75H15.6V1.875C15.6 0.839844 14.7938 0 13.8 0H4.2C3.20625 0 2.4 0.839844 2.4 1.875V3.75H0.3C0.135 3.75 0 3.89062 0 4.0625V4.6875C0 4.85938 0.135 5 0.3 5H10.5C10.665 5 10.8 5.14062 10.8 5.3125V5.9375C10.8 6.10938 10.665 6.25 10.5 6.25H1.5C1.335 6.25 1.2 6.39062 1.2 6.5625V7.1875C1.2 7.35938 1.335 7.5 1.5 7.5H9.3C9.465 7.5 9.6 7.64062 9.6 7.8125V8.4375C9.6 8.60938 9.465 8.75 9.3 8.75H0.3C0.135 8.75 0 8.89062 0 9.0625V9.6875C0 9.85938 0.135 10 0.3 10H8.1C8.265 10 8.4 10.1406 8.4 10.3125V10.9375C8.4 11.1094 8.265 11.25 8.1 11.25H2.4V16.25C2.4 18.3203 4.0125 20 6 20C7.9875 20 9.6 18.3203 9.6 16.25H14.4C14.4 18.3203 16.0125 20 18 20C19.9875 20 21.6 18.3203 21.6 16.25H23.4C23.73 16.25 24 15.9688 24 15.625V14.375C24 14.0312 23.73 13.75 23.4 13.75ZM6 18.125C5.00625 18.125 4.2 17.2852 4.2 16.25C4.2 15.2148 5.00625 14.375 6 14.375C6.99375 14.375 7.8 15.2148 7.8 16.25C7.8 17.2852 6.99375 18.125 6 18.125ZM18 18.125C17.0063 18.125 16.2 17.2852 16.2 16.25C16.2 15.2148 17.0063 14.375 18 14.375C18.9938 14.375 19.8 15.2148 19.8 16.25C19.8 17.2852 18.9938 18.125 18 18.125ZM21 10H15.6V5.625H17.2538L21 9.52734V10Z" fill="#2F3478"/>
</svg>
