<svg width="24" height="18" viewBox="0 0 24 18" fill="none" xmlns="http://www.w3.org/2000/svg">
<path d="M18.6469 3.10987C18.6367 3.21112 18.6308 3.32662 18.6281 3.45187L17.1904 4.1385C16.989 4.1055 15.9904 4.16362 14.5009 3.42862C14.1232 3.24225 13.7543 3.14325 13.3999 3.14325C13.0792 3.1437 12.7632 3.22016 12.4777 3.36637C12.1016 3.285 11.5598 3.0765 11.2429 3.07725C10.5259 3.081 8.89575 3.66488 8.44425 3.71475C8.0025 3.76312 7.54763 3.88462 7.08975 4.07812C6.25763 3.83588 5.21438 3.44025 4.65562 3.22162L0.75 0.375V9.52875L3.62025 10.8945C3.66188 10.8457 3.7095 10.7708 3.76125 10.6777L3.85013 10.719C3.89363 10.8315 3.94163 10.9436 3.99412 11.055C3.67913 11.5852 3.64162 12.1826 3.89325 12.702C4.10888 13.1464 4.5105 13.4584 4.95787 13.5458C4.98225 13.8225 5.07525 14.0903 5.232 14.3224C5.51325 14.7375 5.96025 14.9854 6.42863 14.9854C6.471 14.9854 6.51338 14.9835 6.55538 14.9786C6.62213 15.159 6.72 15.327 6.84713 15.4725C7.12988 15.7976 7.52588 15.984 7.93313 15.984C7.96313 15.984 7.99237 15.9833 8.022 15.981C8.07375 16.1775 8.16188 16.3635 8.28487 16.5292C8.568 16.9117 9.00488 17.1394 9.45413 17.1394C9.73312 17.1394 9.99975 17.0539 10.2349 16.8937C10.6894 17.1855 11.0846 17.3906 11.4352 17.5166C11.6111 17.5882 11.7941 17.625 11.9809 17.625C12.4226 17.625 12.8512 17.4187 13.1572 17.058C13.2709 16.9237 13.3631 16.7737 13.4306 16.6132C13.5628 16.6532 13.7001 16.6737 13.8383 16.674C14.3077 16.674 14.7529 16.4441 15.0607 16.0421C15.207 15.8516 15.3129 15.6333 15.372 15.4005C15.4043 15.4028 15.4361 15.4039 15.468 15.4039C16.0106 15.4039 16.53 15.0855 16.8221 14.5729C16.9753 14.3062 17.0566 14.0044 17.058 13.6969C17.5942 13.617 18.0664 13.2356 18.2962 12.6795C18.5228 12.1316 18.4613 11.5271 18.1451 11.0231L19.6058 10.2C19.6433 10.3282 19.68 10.4464 19.7156 10.5424L23.25 8.66175V0.99075L18.6469 3.10987ZM18.6465 4.24875C18.6698 4.6545 18.7121 5.11313 18.7669 5.592C18.4669 5.088 18.0881 4.85812 17.6179 4.74375L18.6465 4.24875ZM16.686 13.1572C15.8805 12.8801 14.2039 10.9091 14.2039 10.9091H14.2369C14.4075 10.8971 14.7761 10.7175 15.1898 10.8034C14.5402 10.2454 13.8259 10.7175 13.3395 10.4284C13.4524 10.7902 13.995 10.9043 14.1341 10.9088L15.7406 12.777C16.4681 13.6226 15.9615 14.6689 15.2321 14.8354C14.7428 14.5972 13.3609 12.9536 13.3609 12.9536C13.4081 12.945 13.6883 12.8573 13.9736 12.8948C13.3148 12.402 12.5677 12.8295 12.1245 12.5201C12.3758 13.1407 13.2034 12.9817 13.29 12.9667L14.1495 14.064C14.8372 14.9415 14.2969 15.9551 13.5664 16.0924C12.9187 15.8647 12.4984 15.0548 12.4984 15.0548C12.5636 15.0442 12.7819 14.9471 13.0924 14.9921C12.54 14.508 11.8969 14.9471 11.5103 14.6715C11.7491 15.192 12.3446 15.0735 12.378 15.0697C12.9735 16.0076 12.3559 16.9856 11.6179 17.0149H11.6171L11.6164 17.0153C11.1731 16.9384 10.7089 16.584 10.1846 16.2203C10.3646 16.0208 10.5236 15.6701 10.5236 15.6701C11.0501 14.7169 10.3669 13.8739 9.6615 13.9462C10.2338 14.1026 10.6628 14.8331 10.2161 15.6442L10.02 15.9742C9.807 16.3624 9.47438 16.5968 9.22988 16.5679C8.85338 16.5221 8.32275 15.9724 8.54587 15.1969C8.63212 15.1181 9.46387 13.8458 9.46387 13.8458C10.0357 12.9248 9.39375 12.0431 8.6865 12.0731C9.24975 12.2633 9.64462 13.0185 9.159 13.8022L8.48287 14.8564C8.25225 15.2291 7.95375 15.4402 7.66913 15.4012C7.22738 15.3412 6.91762 14.8024 6.9885 14.2463C6.98475 14.2496 7.47525 13.701 7.47525 13.701C8.127 12.8494 7.569 11.8984 6.86287 11.8485C7.4055 12.1013 7.72875 12.8977 7.17487 13.6226L6.93563 13.9159C6.67313 14.2601 6.357 14.4353 6.08025 14.3663C5.59725 14.2451 5.346 13.3414 5.57438 13.095C5.754 12.9011 6.25837 12.2872 6.25837 12.2872C6.90975 11.4352 6.3525 10.4846 5.64563 10.434C6.18863 10.6875 6.51187 11.484 5.958 12.2092L5.71875 12.5018C5.45475 12.849 5.1375 13.0234 4.85887 12.9525C4.27837 12.8055 3.9885 11.9093 4.54387 11.1818C4.54387 11.1818 4.35525 10.5825 4.27012 10.3264L3.99038 10.1966C4.64625 8.6685 5.637 5.29575 5.68275 4.17525C6.16575 4.34738 7.44075 4.71413 7.57612 4.71488L7.57538 4.71563C8.94788 4.28438 10.3864 4.332 11.0426 4.0785C11.2552 3.9975 11.6783 3.99225 12.1268 4.24875C11.8466 4.49437 11.5819 4.78688 11.307 5.0595C10.65 5.71163 8.20725 6.72862 8.67825 7.79813C9.08475 8.721 10.2296 9.66525 12.15 8.18287L13.23 8.03437L14.9096 8.86312L17.0621 11.0737C17.8298 11.8605 17.3951 12.9285 16.686 13.1572ZM17.226 10.7216C16.9792 10.2604 16.2101 9.504 15.4841 8.88562L15.4796 8.88113C15.8145 8.89463 16.1659 8.35537 16.62 8.31375C16.3027 8.0715 15.777 8.35125 15.6131 8.3955C14.7097 8.6385 13.3057 7.50187 13.3057 7.50187L11.9625 7.69537C11.9625 7.69537 10.365 9.645 9.01912 8.03888C8.28825 7.16663 10.9369 6.02737 11.5894 5.379C12.4253 4.54838 13.17 3.53212 14.5451 4.22437C15.6874 4.80037 16.1374 4.76475 17.6696 5.03137C18.1264 5.11125 18.4429 5.3205 18.7822 5.72888C18.942 7.07288 19.2004 8.5635 19.4482 9.60075C19.3204 9.70837 18.2243 10.4456 17.226 10.7216Z" fill="#2F3478"/>
</svg>
