<svg width="35" height="35" viewBox="0 0 35 35" fill="none" xmlns="http://www.w3.org/2000/svg">
<path d="M27.1934 8.91023C27.1786 9.05789 27.1698 9.22633 27.166 9.40898L25.0693 10.4103C24.7756 10.3622 23.3193 10.447 21.1471 9.37508C20.5964 9.10328 20.0583 8.95891 19.5415 8.95891C19.0738 8.95956 18.613 9.07107 18.1967 9.2843C17.6482 9.16562 16.858 8.86156 16.3959 8.86266C15.3502 8.86812 12.973 9.71961 12.3145 9.79234C11.6703 9.86289 11.007 10.0401 10.3392 10.3223C9.1257 9.96898 7.6043 9.39203 6.78945 9.0732L1.09375 4.92188V18.2711L5.27953 20.2628C5.34023 20.1917 5.40969 20.0823 5.48516 19.9467L5.61477 20.0069C5.6782 20.1709 5.7482 20.3345 5.82477 20.4969C5.36539 21.2702 5.3107 22.1413 5.67766 22.8988C5.99211 23.5468 6.57781 24.0018 7.23023 24.1292C7.26578 24.5328 7.40141 24.9233 7.63 25.2618C8.04016 25.8672 8.69203 26.2287 9.37508 26.2287C9.43687 26.2287 9.49867 26.2259 9.55992 26.2188C9.65727 26.4819 9.8 26.7269 9.98539 26.9391C10.3977 27.4132 10.9752 27.685 11.5691 27.685C11.6129 27.685 11.6555 27.6839 11.6988 27.6806C11.7742 27.9672 11.9027 28.2384 12.0821 28.4802C12.495 29.038 13.1321 29.3699 13.7873 29.3699C14.1941 29.3699 14.583 29.2452 14.9259 29.0117C15.5887 29.4372 16.1651 29.7363 16.6764 29.9201C16.9329 30.0245 17.1998 30.0781 17.4721 30.0781C18.1163 30.0781 18.7414 29.7773 19.1877 29.2512C19.3534 29.0555 19.4879 28.8367 19.5863 28.6027C19.7791 28.661 19.9794 28.6908 20.1808 28.6912C20.8655 28.6912 21.5146 28.356 21.9636 27.7698C22.1769 27.4919 22.3313 27.1736 22.4175 26.8341C22.4645 26.8373 22.511 26.839 22.5575 26.839C23.3488 26.839 24.1063 26.3747 24.5323 25.6271C24.7556 25.2382 24.8741 24.798 24.8762 24.3496C25.6583 24.2331 26.3468 23.677 26.682 22.8659C27.0123 22.067 26.9227 21.1854 26.4616 20.4504L28.5917 19.25C28.6464 19.437 28.7 19.6093 28.752 19.7493L33.9062 17.0067V5.81984L27.1934 8.91023ZM27.1928 10.5711C27.2267 11.1628 27.2885 11.8316 27.3684 12.53C26.9309 11.795 26.3785 11.4598 25.6927 11.293L27.1928 10.5711ZM24.3337 23.5627C23.1591 23.1585 20.714 20.2841 20.714 20.2841H20.7621C21.0109 20.2666 21.5485 20.0047 22.1517 20.1299C21.2045 19.3162 20.1627 20.0047 19.4534 19.583C19.618 20.1108 20.4094 20.277 20.6123 20.2836L22.9551 23.0081C24.016 24.2413 23.2772 25.7671 22.2135 26.0099C21.4998 25.6627 19.4846 23.2657 19.4846 23.2657C19.5535 23.2531 19.962 23.1252 20.3782 23.1798C19.4173 22.4613 18.328 23.0847 17.6816 22.6335C18.048 23.5386 19.2549 23.3067 19.3812 23.2848L20.6347 24.885C21.6377 26.1647 20.8496 27.6429 19.7843 27.843C18.8398 27.5111 18.2268 26.3298 18.2268 26.3298C18.322 26.3145 18.6402 26.1729 19.093 26.2385C18.2875 25.5325 17.3496 26.1729 16.7858 25.7709C17.1341 26.53 18.0026 26.3572 18.0513 26.3517C18.9197 27.7195 18.019 29.1457 16.9427 29.1884H16.9416L16.9405 29.1889C16.2941 29.0768 15.6171 28.56 14.8526 28.0295C15.1151 27.7386 15.347 27.2273 15.347 27.2273C16.1148 25.8371 15.1184 24.6077 14.0897 24.7133C14.9242 24.9413 15.5498 26.0066 14.8985 27.1895L14.6125 27.6708C14.3019 28.2368 13.8168 28.5786 13.4602 28.5365C12.9112 28.4698 12.1373 27.668 12.4627 26.5371C12.5885 26.4223 13.8015 24.5667 13.8015 24.5667C14.6355 23.2236 13.6992 21.9379 12.6678 21.9816C13.4892 22.2589 14.0651 23.3603 13.3569 24.5033L12.3709 26.0405C12.0345 26.5841 11.5992 26.892 11.1841 26.8352C10.5399 26.7477 10.0882 25.9618 10.1916 25.1508C10.1861 25.1557 10.9014 24.3556 10.9014 24.3556C11.8519 23.1137 11.0381 21.7268 10.0084 21.6541C10.7997 22.0227 11.2711 23.1842 10.4634 24.2413L10.1145 24.669C9.73164 25.171 9.27063 25.4264 8.86703 25.3258C8.16266 25.1491 7.79625 23.8312 8.1293 23.4719C8.39125 23.1891 9.1268 22.2939 9.1268 22.2939C10.0767 21.0514 9.26406 19.6651 8.2332 19.5913C9.02508 19.9609 9.49648 21.1225 8.68875 22.1802L8.33984 22.6067C7.95484 23.1131 7.49219 23.3674 7.08586 23.2641C6.2393 23.0497 5.81656 21.7427 6.62648 20.6817C6.62648 20.6817 6.35141 19.8078 6.22727 19.4343L5.8193 19.2451C6.77578 17.0166 8.22062 12.098 8.28734 10.4639C8.99172 10.7149 10.8511 11.2498 11.0485 11.2509L11.0474 11.252C13.049 10.623 15.1468 10.6925 16.1038 10.3228C16.4139 10.2047 17.0308 10.197 17.6848 10.5711C17.2763 10.9293 16.8902 11.3559 16.4894 11.7534C15.5312 12.7045 11.9689 14.1876 12.6558 15.7473C13.2486 17.0931 14.9182 18.4702 17.7188 16.3084L19.2937 16.0918L21.7432 17.3004L24.8823 20.5242C26.0017 21.6716 25.3679 23.2291 24.3337 23.5627ZM25.1213 20.0107C24.7614 19.338 23.6398 18.235 22.581 17.3332L22.5745 17.3266C23.0628 17.3463 23.5752 16.5599 24.2375 16.4992C23.7748 16.1459 23.0081 16.5539 22.7691 16.6184C21.4517 16.9728 19.4042 15.3152 19.4042 15.3152L17.4453 15.5974C17.4453 15.5974 15.1156 18.4406 13.1529 16.0984C12.087 14.8263 15.9496 13.1649 16.9012 12.2194C18.1202 11.008 19.2062 9.52602 21.2116 10.5355C22.8774 11.3755 23.5337 11.3236 25.7682 11.7124C26.4343 11.8289 26.8959 12.1341 27.3908 12.7296C27.6237 14.6896 28.0005 16.8634 28.362 18.3761C28.1755 18.533 26.577 19.6082 25.1213 20.0107Z" fill="white"/>
</svg>
